<?xml version="1.0" encoding="UTF-8"?>
<svg width="800px" height="800px" fill="#000000" version="1.1" viewBox="0 0 512 512" xml:space="preserve" xmlns="http://www.w3.org/2000/svg">

	
		<path d="m503.72 109.07c-39.212-20.073-83.241-30.683-127.33-30.683-35.964 0-71.883 7.071-105.19 20.57v319.3c32.805-15.268 68.969-23.321 105.19-23.321 39.288 0 78.523 9.455 113.46 27.342l22.139 11.333v-320.3l-8.279-4.238zm-65.855 224.19c-40.214-10.236-82.723-10.236-122.94 0l-7.503-29.477c45.121-11.486 92.823-11.486 137.94 0l-7.504 29.477zm0-52.325c-40.214-10.236-82.723-10.236-122.94 0l-7.503-29.477c45.121-11.486 92.823-11.486 137.94 0l-7.504 29.477zm0-52.325c-40.214-10.236-82.723-10.236-122.94 0l-7.503-29.477c45.121-11.486 92.823-11.486 137.94 0l-7.504 29.477zm0-52.325c-40.214-10.236-82.723-10.236-122.94 0l-7.503-29.477c45.121-11.486 92.823-11.486 137.94 0l-7.504 29.477z"/>
	


	
		<path d="m135.61 78.387c-44.086 0-88.115 10.61-127.33 30.683l-8.279 4.238v320.31l22.139-11.333c34.941-17.887 74.178-27.342 113.47-27.342 36.217 0 72.381 8.054 105.19 23.321v-319.3c-33.304-13.499-69.223-20.57-105.19-20.57zm61.467 254.87c-40.213-10.236-82.723-10.236-122.94 0l-7.503-29.477c45.121-11.486 92.822-11.486 137.94 0l-7.504 29.477zm0-52.325c-40.213-10.236-82.723-10.236-122.94 0l-7.503-29.477c45.121-11.486 92.822-11.486 137.94 0l-7.504 29.477zm0-52.325c-40.213-10.236-82.723-10.236-122.94 0l-7.503-29.477c45.121-11.486 92.822-11.486 137.94 0l-7.504 29.477zm0-52.325c-40.213-10.236-82.723-10.236-122.94 0l-7.503-29.477c45.121-11.486 92.822-11.486 137.94 0l-7.504 29.477z"/>
	

</svg>
