<?xml version="1.0" encoding="UTF-8"?>
<svg width="800" height="800" viewBox="144 144 512 512" xmlns="http://www.w3.org/2000/svg">
<path d="m308.13 568.18c-17.781.0-34.82 14.816-34.82 34.82.0 19.262 15.559 34.82 34.82 34.82h214.86c1.4805.0 2.9648-1.4805 2.9648-2.9648v-65.941c-105.21-.73438-155.59-.73438-217.82-.73438zm191.15 40.746H315.54v-11.855h183.74z"/>
<path d="m308.13 560.77h7.4102l-.003906-264.5h-7.4102c-19.262.0-34.82 15.559-34.82 34.082v247.46c8.1523-10.375 21.488-17.043 34.824-17.043z"/>
<path d="m525.95 306.64c0-5.9258-4.4453-10.371-10.371-10.371h-192.63v263.76h203z"/>
<path d="m583 345.91v44.453h-24.45v-44.453c0-87.426-71.125-158.55-158.55-158.55s-158.55 71.125-158.55 158.55v44.453h-24.45v-44.453c-0.003906-100.76 82.238-183 183-183s183 82.242 183 183z"/>
<path d="m188.1 427.41h1.4805v48.16H188.1c-12.594.0-22.227-9.6328-22.227-22.227v-3.7031c0-11.855 9.6328-22.23 22.227-22.23z"/>
<path d="m219.22 397.78h41.488v108.17l-41.488-.003907c-12.594.0-22.969-10.371-22.969-22.969v-62.977c.74219-12.594 10.375-22.223 22.969-22.223z"/>
<path d="m603 420v62.977c0 12.594-10.371 22.969-22.969 22.969h-41.488v-108.17h41.488c13.336 0 22.969 9.6289 22.969 22.227z"/>
<path d="m634.12 449.64v3.7031c0 12.594-9.6328 22.227-22.227 22.227h-1.4805v-48.16h1.4805c12.594.003906 22.227 10.379 22.227 22.23z"/>
</svg>