<?xml version="1.0" encoding="UTF-8"?>
<svg width="800px" height="800px" fill="#000000" version="1.1" viewBox="0 0 32 32" xml:space="preserve" xmlns="http://www.w3.org/2000/svg">
<path d="m28 3h-24c-0.6 0-1 0.4-1 1v16c0 0.6 0.4 1 1 1h24c0.6 0 1-0.4 1-1v-16c0-0.6-0.4-1-1-1zm-9.4 9.8-4 3c-0.2 0.1-0.4 0.2-0.6 0.2s-0.3 0-0.4-0.1c-0.4-0.2-0.6-0.5-0.6-0.9v-6c0-0.4 0.2-0.7 0.6-0.9 0.3-0.2 0.7-0.1 1 0.1l4 3c0.3 0.2 0.4 0.5 0.4 0.8s-0.1 0.6-0.4 0.8z"/>

	<path d="m10 29c-1.7 0-3-1.3-3-3s1.3-3 3-3 3 1.3 3 3-1.3 3-3 3z"/>


	<path d="m8 27h-4c-0.6 0-1-0.4-1-1s0.4-1 1-1h4c0.6 0 1 0.4 1 1s-0.4 1-1 1z"/>


	<path d="m28 27h-13c-0.6 0-1-0.4-1-1s0.4-1 1-1h13c0.6 0 1 0.4 1 1s-0.4 1-1 1z"/>

</svg>
